<mxfile host="app.diagrams.net" modified="2023-12-12T12:21:10.989Z" agent="Mozilla/5.0 (Windows NT 10.0; Win64; x64) AppleWebKit/537.36 (KHTML, like Gecko) Chrome/118.0.5993.731 YaBrowser/23.11.1.731 Yowser/2.5 Safari/537.36" etag="KQEEsEDcxupD9_GaU2Xz" version="21.8.2" type="device">
  <diagram id="C5RBs43oDa-KdzZeNtuy" name="Page-1">
    <mxGraphModel dx="1674" dy="777" grid="1" gridSize="10" guides="1" tooltips="1" connect="1" arrows="1" fold="1" page="1" pageScale="1" pageWidth="827" pageHeight="1169" math="0" shadow="0">
      <root>
        <mxCell id="WIyWlLk6GJQsqaUBKTNV-0" />
        <mxCell id="WIyWlLk6GJQsqaUBKTNV-1" parent="WIyWlLk6GJQsqaUBKTNV-0" />
        <mxCell id="Yj--scNwUhtBxAXL6cpy-7" style="edgeStyle=orthogonalEdgeStyle;rounded=0;orthogonalLoop=1;jettySize=auto;html=1;exitX=0.5;exitY=1;exitDx=0;exitDy=0;" edge="1" parent="WIyWlLk6GJQsqaUBKTNV-1" source="Yj--scNwUhtBxAXL6cpy-1" target="Yj--scNwUhtBxAXL6cpy-2">
          <mxGeometry relative="1" as="geometry" />
        </mxCell>
        <mxCell id="Yj--scNwUhtBxAXL6cpy-1" value="Начало" style="ellipse;whiteSpace=wrap;html=1;" vertex="1" parent="WIyWlLk6GJQsqaUBKTNV-1">
          <mxGeometry x="95" width="120" height="80" as="geometry" />
        </mxCell>
        <mxCell id="Yj--scNwUhtBxAXL6cpy-8" style="edgeStyle=orthogonalEdgeStyle;rounded=0;orthogonalLoop=1;jettySize=auto;html=1;exitX=0.5;exitY=1;exitDx=0;exitDy=0;entryX=0.5;entryY=0;entryDx=0;entryDy=0;" edge="1" parent="WIyWlLk6GJQsqaUBKTNV-1" source="Yj--scNwUhtBxAXL6cpy-2" target="Yj--scNwUhtBxAXL6cpy-3">
          <mxGeometry relative="1" as="geometry" />
        </mxCell>
        <mxCell id="Yj--scNwUhtBxAXL6cpy-2" value="Ввод&lt;br&gt;inputStrings[]" style="shape=parallelogram;perimeter=parallelogramPerimeter;whiteSpace=wrap;html=1;fixedSize=1;" vertex="1" parent="WIyWlLk6GJQsqaUBKTNV-1">
          <mxGeometry x="95" y="120" width="120" height="60" as="geometry" />
        </mxCell>
        <mxCell id="Yj--scNwUhtBxAXL6cpy-9" style="edgeStyle=orthogonalEdgeStyle;rounded=0;orthogonalLoop=1;jettySize=auto;html=1;exitX=0.5;exitY=1;exitDx=0;exitDy=0;entryX=0.5;entryY=0;entryDx=0;entryDy=0;" edge="1" parent="WIyWlLk6GJQsqaUBKTNV-1" source="Yj--scNwUhtBxAXL6cpy-3" target="Yj--scNwUhtBxAXL6cpy-4">
          <mxGeometry relative="1" as="geometry" />
        </mxCell>
        <mxCell id="Yj--scNwUhtBxAXL6cpy-3" value="filteredStrings=FilterStrings(inputStrings)" style="shape=process;whiteSpace=wrap;html=1;backgroundOutline=1;" vertex="1" parent="WIyWlLk6GJQsqaUBKTNV-1">
          <mxGeometry x="20" y="220" width="270" height="70" as="geometry" />
        </mxCell>
        <mxCell id="Yj--scNwUhtBxAXL6cpy-10" style="edgeStyle=orthogonalEdgeStyle;rounded=0;orthogonalLoop=1;jettySize=auto;html=1;exitX=0.5;exitY=1;exitDx=0;exitDy=0;entryX=0.5;entryY=0;entryDx=0;entryDy=0;" edge="1" parent="WIyWlLk6GJQsqaUBKTNV-1" source="Yj--scNwUhtBxAXL6cpy-4" target="Yj--scNwUhtBxAXL6cpy-5">
          <mxGeometry relative="1" as="geometry" />
        </mxCell>
        <mxCell id="Yj--scNwUhtBxAXL6cpy-4" value="Вывод&lt;br&gt;inputStrings[]&lt;br&gt;filteredStrings[]" style="shape=parallelogram;perimeter=parallelogramPerimeter;whiteSpace=wrap;html=1;fixedSize=1;" vertex="1" parent="WIyWlLk6GJQsqaUBKTNV-1">
          <mxGeometry x="95" y="330" width="120" height="60" as="geometry" />
        </mxCell>
        <mxCell id="Yj--scNwUhtBxAXL6cpy-5" value="Конец" style="ellipse;whiteSpace=wrap;html=1;" vertex="1" parent="WIyWlLk6GJQsqaUBKTNV-1">
          <mxGeometry x="95" y="440" width="120" height="80" as="geometry" />
        </mxCell>
        <mxCell id="Yj--scNwUhtBxAXL6cpy-38" style="edgeStyle=orthogonalEdgeStyle;rounded=0;orthogonalLoop=1;jettySize=auto;html=1;exitX=0.5;exitY=1;exitDx=0;exitDy=0;" edge="1" parent="WIyWlLk6GJQsqaUBKTNV-1" source="Yj--scNwUhtBxAXL6cpy-11" target="Yj--scNwUhtBxAXL6cpy-14">
          <mxGeometry relative="1" as="geometry" />
        </mxCell>
        <mxCell id="Yj--scNwUhtBxAXL6cpy-11" value="Начало" style="ellipse;whiteSpace=wrap;html=1;" vertex="1" parent="WIyWlLk6GJQsqaUBKTNV-1">
          <mxGeometry x="520" y="5" width="120" height="80" as="geometry" />
        </mxCell>
        <mxCell id="Yj--scNwUhtBxAXL6cpy-13" value="Блок схема для FilterStrings" style="text;html=1;strokeColor=none;fillColor=none;align=center;verticalAlign=middle;whiteSpace=wrap;rounded=0;" vertex="1" parent="WIyWlLk6GJQsqaUBKTNV-1">
          <mxGeometry x="670" y="5" width="90" height="75" as="geometry" />
        </mxCell>
        <mxCell id="Yj--scNwUhtBxAXL6cpy-55" style="edgeStyle=orthogonalEdgeStyle;rounded=0;orthogonalLoop=1;jettySize=auto;html=1;exitX=0.5;exitY=1;exitDx=0;exitDy=0;entryX=0.5;entryY=0;entryDx=0;entryDy=0;" edge="1" parent="WIyWlLk6GJQsqaUBKTNV-1" source="Yj--scNwUhtBxAXL6cpy-14" target="Yj--scNwUhtBxAXL6cpy-15">
          <mxGeometry relative="1" as="geometry" />
        </mxCell>
        <mxCell id="Yj--scNwUhtBxAXL6cpy-14" value="resultIndex=0" style="rounded=0;whiteSpace=wrap;html=1;" vertex="1" parent="WIyWlLk6GJQsqaUBKTNV-1">
          <mxGeometry x="520" y="120" width="120" height="60" as="geometry" />
        </mxCell>
        <mxCell id="Yj--scNwUhtBxAXL6cpy-56" style="edgeStyle=orthogonalEdgeStyle;rounded=0;orthogonalLoop=1;jettySize=auto;html=1;exitX=0.5;exitY=1;exitDx=0;exitDy=0;entryX=0.5;entryY=0;entryDx=0;entryDy=0;" edge="1" parent="WIyWlLk6GJQsqaUBKTNV-1" source="Yj--scNwUhtBxAXL6cpy-15" target="Yj--scNwUhtBxAXL6cpy-41">
          <mxGeometry relative="1" as="geometry" />
        </mxCell>
        <mxCell id="Yj--scNwUhtBxAXL6cpy-61" style="edgeStyle=orthogonalEdgeStyle;rounded=0;orthogonalLoop=1;jettySize=auto;html=1;exitX=1;exitY=0.5;exitDx=0;exitDy=0;entryX=0.5;entryY=0;entryDx=0;entryDy=0;" edge="1" parent="WIyWlLk6GJQsqaUBKTNV-1" source="Yj--scNwUhtBxAXL6cpy-15" target="Yj--scNwUhtBxAXL6cpy-60">
          <mxGeometry relative="1" as="geometry" />
        </mxCell>
        <mxCell id="Yj--scNwUhtBxAXL6cpy-15" value="i,inputStrings.Length,1" style="shape=hexagon;perimeter=hexagonPerimeter2;whiteSpace=wrap;html=1;fixedSize=1;" vertex="1" parent="WIyWlLk6GJQsqaUBKTNV-1">
          <mxGeometry x="510" y="215" width="140" height="90" as="geometry" />
        </mxCell>
        <mxCell id="Yj--scNwUhtBxAXL6cpy-25" value="" style="endArrow=none;dashed=1;html=1;dashPattern=1 3;strokeWidth=2;rounded=0;exitX=1;exitY=0.5;exitDx=0;exitDy=0;" edge="1" parent="WIyWlLk6GJQsqaUBKTNV-1" source="Yj--scNwUhtBxAXL6cpy-11">
          <mxGeometry width="50" height="50" relative="1" as="geometry">
            <mxPoint x="380" y="335" as="sourcePoint" />
            <mxPoint x="660" y="45" as="targetPoint" />
          </mxGeometry>
        </mxCell>
        <mxCell id="Yj--scNwUhtBxAXL6cpy-27" value="" style="endArrow=none;dashed=1;html=1;dashPattern=1 3;strokeWidth=2;rounded=0;" edge="1" parent="WIyWlLk6GJQsqaUBKTNV-1">
          <mxGeometry width="50" height="50" relative="1" as="geometry">
            <mxPoint x="660" y="45" as="sourcePoint" />
            <mxPoint x="660" y="75" as="targetPoint" />
          </mxGeometry>
        </mxCell>
        <mxCell id="Yj--scNwUhtBxAXL6cpy-28" value="" style="endArrow=none;dashed=1;html=1;dashPattern=1 3;strokeWidth=2;rounded=0;entryX=0.375;entryY=0.929;entryDx=0;entryDy=0;entryPerimeter=0;" edge="1" parent="WIyWlLk6GJQsqaUBKTNV-1" target="Yj--scNwUhtBxAXL6cpy-13">
          <mxGeometry width="50" height="50" relative="1" as="geometry">
            <mxPoint x="660" y="75" as="sourcePoint" />
            <mxPoint x="430" y="285" as="targetPoint" />
          </mxGeometry>
        </mxCell>
        <mxCell id="Yj--scNwUhtBxAXL6cpy-29" value="" style="endArrow=none;dashed=1;html=1;dashPattern=1 3;strokeWidth=2;rounded=0;" edge="1" parent="WIyWlLk6GJQsqaUBKTNV-1">
          <mxGeometry width="50" height="50" relative="1" as="geometry">
            <mxPoint x="660" y="45" as="sourcePoint" />
            <mxPoint x="660" y="5" as="targetPoint" />
          </mxGeometry>
        </mxCell>
        <mxCell id="Yj--scNwUhtBxAXL6cpy-30" value="" style="endArrow=none;dashed=1;html=1;dashPattern=1 3;strokeWidth=2;rounded=0;entryX=0.25;entryY=0;entryDx=0;entryDy=0;" edge="1" parent="WIyWlLk6GJQsqaUBKTNV-1" target="Yj--scNwUhtBxAXL6cpy-13">
          <mxGeometry width="50" height="50" relative="1" as="geometry">
            <mxPoint x="660" y="5" as="sourcePoint" />
            <mxPoint x="430" y="285" as="targetPoint" />
          </mxGeometry>
        </mxCell>
        <mxCell id="Yj--scNwUhtBxAXL6cpy-31" value="Цикл foreach просто заменяем циклом for как аналогом для блок-схемы" style="text;html=1;strokeColor=none;fillColor=none;align=center;verticalAlign=middle;whiteSpace=wrap;rounded=0;" vertex="1" parent="WIyWlLk6GJQsqaUBKTNV-1">
          <mxGeometry x="670" y="112.5" width="90" height="75" as="geometry" />
        </mxCell>
        <mxCell id="Yj--scNwUhtBxAXL6cpy-32" value="" style="endArrow=none;dashed=1;html=1;dashPattern=1 3;strokeWidth=2;rounded=0;exitX=1;exitY=0.5;exitDx=0;exitDy=0;" edge="1" parent="WIyWlLk6GJQsqaUBKTNV-1">
          <mxGeometry width="50" height="50" relative="1" as="geometry">
            <mxPoint x="640" y="152.5" as="sourcePoint" />
            <mxPoint x="660" y="152.5" as="targetPoint" />
          </mxGeometry>
        </mxCell>
        <mxCell id="Yj--scNwUhtBxAXL6cpy-33" value="" style="endArrow=none;dashed=1;html=1;dashPattern=1 3;strokeWidth=2;rounded=0;" edge="1" parent="WIyWlLk6GJQsqaUBKTNV-1">
          <mxGeometry width="50" height="50" relative="1" as="geometry">
            <mxPoint x="660" y="152.5" as="sourcePoint" />
            <mxPoint x="660" y="182.5" as="targetPoint" />
          </mxGeometry>
        </mxCell>
        <mxCell id="Yj--scNwUhtBxAXL6cpy-34" value="" style="endArrow=none;dashed=1;html=1;dashPattern=1 3;strokeWidth=2;rounded=0;entryX=0.375;entryY=0.929;entryDx=0;entryDy=0;entryPerimeter=0;" edge="1" parent="WIyWlLk6GJQsqaUBKTNV-1" target="Yj--scNwUhtBxAXL6cpy-31">
          <mxGeometry width="50" height="50" relative="1" as="geometry">
            <mxPoint x="660" y="182.5" as="sourcePoint" />
            <mxPoint x="430" y="392.5" as="targetPoint" />
          </mxGeometry>
        </mxCell>
        <mxCell id="Yj--scNwUhtBxAXL6cpy-35" value="" style="endArrow=none;dashed=1;html=1;dashPattern=1 3;strokeWidth=2;rounded=0;" edge="1" parent="WIyWlLk6GJQsqaUBKTNV-1">
          <mxGeometry width="50" height="50" relative="1" as="geometry">
            <mxPoint x="660" y="152.5" as="sourcePoint" />
            <mxPoint x="660" y="112.5" as="targetPoint" />
          </mxGeometry>
        </mxCell>
        <mxCell id="Yj--scNwUhtBxAXL6cpy-36" value="" style="endArrow=none;dashed=1;html=1;dashPattern=1 3;strokeWidth=2;rounded=0;entryX=0.25;entryY=0;entryDx=0;entryDy=0;" edge="1" parent="WIyWlLk6GJQsqaUBKTNV-1" target="Yj--scNwUhtBxAXL6cpy-31">
          <mxGeometry width="50" height="50" relative="1" as="geometry">
            <mxPoint x="660" y="112.5" as="sourcePoint" />
            <mxPoint x="430" y="392.5" as="targetPoint" />
          </mxGeometry>
        </mxCell>
        <mxCell id="Yj--scNwUhtBxAXL6cpy-43" style="edgeStyle=orthogonalEdgeStyle;rounded=0;orthogonalLoop=1;jettySize=auto;html=1;exitX=1;exitY=0.5;exitDx=0;exitDy=0;entryX=0.5;entryY=0;entryDx=0;entryDy=0;" edge="1" parent="WIyWlLk6GJQsqaUBKTNV-1" source="Yj--scNwUhtBxAXL6cpy-41" target="Yj--scNwUhtBxAXL6cpy-42">
          <mxGeometry relative="1" as="geometry" />
        </mxCell>
        <mxCell id="Yj--scNwUhtBxAXL6cpy-41" value="inputStrings.Length[i]&lt;span style=&quot;background-color: initial; text-align: left;&quot;&gt;&amp;lt;= 3&lt;/span&gt;" style="rhombus;whiteSpace=wrap;html=1;" vertex="1" parent="WIyWlLk6GJQsqaUBKTNV-1">
          <mxGeometry x="500" y="330" width="160" height="120" as="geometry" />
        </mxCell>
        <mxCell id="Yj--scNwUhtBxAXL6cpy-42" value=" resultStrings[resultIndex] = s;&lt;br&gt;&lt;br&gt;&amp;nbsp;resultIndex=resultIndex+1;" style="rounded=0;whiteSpace=wrap;html=1;" vertex="1" parent="WIyWlLk6GJQsqaUBKTNV-1">
          <mxGeometry x="630" y="470" width="160" height="50" as="geometry" />
        </mxCell>
        <mxCell id="Yj--scNwUhtBxAXL6cpy-45" value="" style="endArrow=none;html=1;rounded=0;entryX=0;entryY=0.5;entryDx=0;entryDy=0;" edge="1" parent="WIyWlLk6GJQsqaUBKTNV-1" target="Yj--scNwUhtBxAXL6cpy-41">
          <mxGeometry width="50" height="50" relative="1" as="geometry">
            <mxPoint x="500" y="560" as="sourcePoint" />
            <mxPoint x="440" y="380" as="targetPoint" />
          </mxGeometry>
        </mxCell>
        <mxCell id="Yj--scNwUhtBxAXL6cpy-46" value="" style="endArrow=none;html=1;rounded=0;entryX=0.5;entryY=1;entryDx=0;entryDy=0;" edge="1" parent="WIyWlLk6GJQsqaUBKTNV-1" target="Yj--scNwUhtBxAXL6cpy-42">
          <mxGeometry width="50" height="50" relative="1" as="geometry">
            <mxPoint x="710" y="560" as="sourcePoint" />
            <mxPoint x="510" y="400" as="targetPoint" />
          </mxGeometry>
        </mxCell>
        <mxCell id="Yj--scNwUhtBxAXL6cpy-47" value="" style="endArrow=none;html=1;rounded=0;" edge="1" parent="WIyWlLk6GJQsqaUBKTNV-1">
          <mxGeometry width="50" height="50" relative="1" as="geometry">
            <mxPoint x="710" y="560" as="sourcePoint" />
            <mxPoint x="500" y="560" as="targetPoint" />
          </mxGeometry>
        </mxCell>
        <mxCell id="Yj--scNwUhtBxAXL6cpy-50" value="" style="endArrow=none;html=1;rounded=0;" edge="1" parent="WIyWlLk6GJQsqaUBKTNV-1">
          <mxGeometry width="50" height="50" relative="1" as="geometry">
            <mxPoint x="580" y="560" as="sourcePoint" />
            <mxPoint x="580" y="600" as="targetPoint" />
          </mxGeometry>
        </mxCell>
        <mxCell id="Yj--scNwUhtBxAXL6cpy-51" value="" style="endArrow=none;html=1;rounded=0;" edge="1" parent="WIyWlLk6GJQsqaUBKTNV-1">
          <mxGeometry width="50" height="50" relative="1" as="geometry">
            <mxPoint x="580" y="600" as="sourcePoint" />
            <mxPoint x="470" y="600" as="targetPoint" />
          </mxGeometry>
        </mxCell>
        <mxCell id="Yj--scNwUhtBxAXL6cpy-52" value="" style="endArrow=none;html=1;rounded=0;" edge="1" parent="WIyWlLk6GJQsqaUBKTNV-1">
          <mxGeometry width="50" height="50" relative="1" as="geometry">
            <mxPoint x="470" y="600" as="sourcePoint" />
            <mxPoint x="470" y="260" as="targetPoint" />
          </mxGeometry>
        </mxCell>
        <mxCell id="Yj--scNwUhtBxAXL6cpy-53" value="" style="endArrow=classic;html=1;rounded=0;entryX=0;entryY=0.5;entryDx=0;entryDy=0;" edge="1" parent="WIyWlLk6GJQsqaUBKTNV-1" target="Yj--scNwUhtBxAXL6cpy-15">
          <mxGeometry width="50" height="50" relative="1" as="geometry">
            <mxPoint x="470" y="260" as="sourcePoint" />
            <mxPoint x="440" y="380" as="targetPoint" />
          </mxGeometry>
        </mxCell>
        <mxCell id="Yj--scNwUhtBxAXL6cpy-57" value="Да" style="text;html=1;strokeColor=none;fillColor=none;align=center;verticalAlign=middle;whiteSpace=wrap;rounded=0;" vertex="1" parent="WIyWlLk6GJQsqaUBKTNV-1">
          <mxGeometry x="650" y="360" width="60" height="30" as="geometry" />
        </mxCell>
        <mxCell id="Yj--scNwUhtBxAXL6cpy-58" value="Нет" style="text;html=1;strokeColor=none;fillColor=none;align=center;verticalAlign=middle;whiteSpace=wrap;rounded=0;" vertex="1" parent="WIyWlLk6GJQsqaUBKTNV-1">
          <mxGeometry x="460" y="370" width="60" height="30" as="geometry" />
        </mxCell>
        <mxCell id="Yj--scNwUhtBxAXL6cpy-78" style="edgeStyle=orthogonalEdgeStyle;rounded=0;orthogonalLoop=1;jettySize=auto;html=1;exitX=0.5;exitY=1;exitDx=0;exitDy=0;entryX=0.5;entryY=0;entryDx=0;entryDy=0;" edge="1" parent="WIyWlLk6GJQsqaUBKTNV-1" source="Yj--scNwUhtBxAXL6cpy-60" target="Yj--scNwUhtBxAXL6cpy-69">
          <mxGeometry relative="1" as="geometry" />
        </mxCell>
        <mxCell id="Yj--scNwUhtBxAXL6cpy-60" value="        Array.Copy(resultStrings, finalResult, resultIndex);" style="shape=process;whiteSpace=wrap;html=1;backgroundOutline=1;" vertex="1" parent="WIyWlLk6GJQsqaUBKTNV-1">
          <mxGeometry x="840" y="295" width="170" height="55" as="geometry" />
        </mxCell>
        <mxCell id="Yj--scNwUhtBxAXL6cpy-63" value="Копируем в&amp;nbsp;новый массив, который точно соответствует количеству найденных строк (в блок схеме данный шаг по сути бессмысленный, т.к. нет длин массивов)" style="text;html=1;strokeColor=none;fillColor=none;align=center;verticalAlign=middle;whiteSpace=wrap;rounded=0;" vertex="1" parent="WIyWlLk6GJQsqaUBKTNV-1">
          <mxGeometry x="1043" y="270" width="210" height="75" as="geometry" />
        </mxCell>
        <mxCell id="Yj--scNwUhtBxAXL6cpy-64" value="" style="endArrow=none;dashed=1;html=1;dashPattern=1 3;strokeWidth=2;rounded=0;exitX=1;exitY=0.5;exitDx=0;exitDy=0;" edge="1" parent="WIyWlLk6GJQsqaUBKTNV-1">
          <mxGeometry width="50" height="50" relative="1" as="geometry">
            <mxPoint x="1013" y="310" as="sourcePoint" />
            <mxPoint x="1033" y="310" as="targetPoint" />
          </mxGeometry>
        </mxCell>
        <mxCell id="Yj--scNwUhtBxAXL6cpy-65" value="" style="endArrow=none;dashed=1;html=1;dashPattern=1 3;strokeWidth=2;rounded=0;" edge="1" parent="WIyWlLk6GJQsqaUBKTNV-1">
          <mxGeometry width="50" height="50" relative="1" as="geometry">
            <mxPoint x="1033" y="310" as="sourcePoint" />
            <mxPoint x="1033" y="340" as="targetPoint" />
          </mxGeometry>
        </mxCell>
        <mxCell id="Yj--scNwUhtBxAXL6cpy-66" value="" style="endArrow=none;dashed=1;html=1;dashPattern=1 3;strokeWidth=2;rounded=0;entryX=0.375;entryY=0.929;entryDx=0;entryDy=0;entryPerimeter=0;" edge="1" parent="WIyWlLk6GJQsqaUBKTNV-1" target="Yj--scNwUhtBxAXL6cpy-63">
          <mxGeometry width="50" height="50" relative="1" as="geometry">
            <mxPoint x="1033" y="340" as="sourcePoint" />
            <mxPoint x="803" y="550" as="targetPoint" />
          </mxGeometry>
        </mxCell>
        <mxCell id="Yj--scNwUhtBxAXL6cpy-67" value="" style="endArrow=none;dashed=1;html=1;dashPattern=1 3;strokeWidth=2;rounded=0;" edge="1" parent="WIyWlLk6GJQsqaUBKTNV-1">
          <mxGeometry width="50" height="50" relative="1" as="geometry">
            <mxPoint x="1033" y="310" as="sourcePoint" />
            <mxPoint x="1033" y="270" as="targetPoint" />
          </mxGeometry>
        </mxCell>
        <mxCell id="Yj--scNwUhtBxAXL6cpy-68" value="" style="endArrow=none;dashed=1;html=1;dashPattern=1 3;strokeWidth=2;rounded=0;entryX=0.25;entryY=0;entryDx=0;entryDy=0;" edge="1" parent="WIyWlLk6GJQsqaUBKTNV-1" target="Yj--scNwUhtBxAXL6cpy-63">
          <mxGeometry width="50" height="50" relative="1" as="geometry">
            <mxPoint x="1033" y="270" as="sourcePoint" />
            <mxPoint x="803" y="550" as="targetPoint" />
          </mxGeometry>
        </mxCell>
        <mxCell id="Yj--scNwUhtBxAXL6cpy-80" style="edgeStyle=orthogonalEdgeStyle;rounded=0;orthogonalLoop=1;jettySize=auto;html=1;exitX=0.5;exitY=1;exitDx=0;exitDy=0;entryX=0.5;entryY=0;entryDx=0;entryDy=0;" edge="1" parent="WIyWlLk6GJQsqaUBKTNV-1" source="Yj--scNwUhtBxAXL6cpy-69" target="Yj--scNwUhtBxAXL6cpy-79">
          <mxGeometry relative="1" as="geometry" />
        </mxCell>
        <mxCell id="Yj--scNwUhtBxAXL6cpy-69" value="FilterStrings(inputStrings)=finalResult" style="rounded=0;whiteSpace=wrap;html=1;" vertex="1" parent="WIyWlLk6GJQsqaUBKTNV-1">
          <mxGeometry x="827" y="370" width="210" height="40" as="geometry" />
        </mxCell>
        <mxCell id="Yj--scNwUhtBxAXL6cpy-71" value="&lt;div style=&quot;text-align: left;&quot;&gt;&lt;span style=&quot;background-color: initial;&quot;&gt;Запись&amp;nbsp;&lt;/span&gt;&lt;span style=&quot;background-color: initial;&quot;&gt;return finalResult&lt;/span&gt;&lt;/div&gt;" style="text;html=1;strokeColor=none;fillColor=none;align=center;verticalAlign=middle;whiteSpace=wrap;rounded=0;" vertex="1" parent="WIyWlLk6GJQsqaUBKTNV-1">
          <mxGeometry x="1067" y="350" width="210" height="75" as="geometry" />
        </mxCell>
        <mxCell id="Yj--scNwUhtBxAXL6cpy-72" value="" style="endArrow=none;dashed=1;html=1;dashPattern=1 3;strokeWidth=2;rounded=0;exitX=1;exitY=0.5;exitDx=0;exitDy=0;" edge="1" parent="WIyWlLk6GJQsqaUBKTNV-1">
          <mxGeometry width="50" height="50" relative="1" as="geometry">
            <mxPoint x="1037" y="390" as="sourcePoint" />
            <mxPoint x="1057" y="390" as="targetPoint" />
          </mxGeometry>
        </mxCell>
        <mxCell id="Yj--scNwUhtBxAXL6cpy-73" value="" style="endArrow=none;dashed=1;html=1;dashPattern=1 3;strokeWidth=2;rounded=0;" edge="1" parent="WIyWlLk6GJQsqaUBKTNV-1">
          <mxGeometry width="50" height="50" relative="1" as="geometry">
            <mxPoint x="1057" y="390" as="sourcePoint" />
            <mxPoint x="1057" y="420" as="targetPoint" />
          </mxGeometry>
        </mxCell>
        <mxCell id="Yj--scNwUhtBxAXL6cpy-74" value="" style="endArrow=none;dashed=1;html=1;dashPattern=1 3;strokeWidth=2;rounded=0;entryX=0.375;entryY=0.929;entryDx=0;entryDy=0;entryPerimeter=0;" edge="1" parent="WIyWlLk6GJQsqaUBKTNV-1" target="Yj--scNwUhtBxAXL6cpy-71">
          <mxGeometry width="50" height="50" relative="1" as="geometry">
            <mxPoint x="1057" y="420" as="sourcePoint" />
            <mxPoint x="827" y="630" as="targetPoint" />
          </mxGeometry>
        </mxCell>
        <mxCell id="Yj--scNwUhtBxAXL6cpy-75" value="" style="endArrow=none;dashed=1;html=1;dashPattern=1 3;strokeWidth=2;rounded=0;" edge="1" parent="WIyWlLk6GJQsqaUBKTNV-1">
          <mxGeometry width="50" height="50" relative="1" as="geometry">
            <mxPoint x="1057" y="390" as="sourcePoint" />
            <mxPoint x="1057" y="350" as="targetPoint" />
          </mxGeometry>
        </mxCell>
        <mxCell id="Yj--scNwUhtBxAXL6cpy-76" value="" style="endArrow=none;dashed=1;html=1;dashPattern=1 3;strokeWidth=2;rounded=0;entryX=0.25;entryY=0;entryDx=0;entryDy=0;" edge="1" parent="WIyWlLk6GJQsqaUBKTNV-1" target="Yj--scNwUhtBxAXL6cpy-71">
          <mxGeometry width="50" height="50" relative="1" as="geometry">
            <mxPoint x="1057" y="350" as="sourcePoint" />
            <mxPoint x="827" y="630" as="targetPoint" />
          </mxGeometry>
        </mxCell>
        <mxCell id="Yj--scNwUhtBxAXL6cpy-79" value="Конец" style="ellipse;whiteSpace=wrap;html=1;" vertex="1" parent="WIyWlLk6GJQsqaUBKTNV-1">
          <mxGeometry x="872" y="440" width="120" height="80" as="geometry" />
        </mxCell>
      </root>
    </mxGraphModel>
  </diagram>
</mxfile>
